<svg width="722" height="85" viewBox="0 0 722 85" fill="none" xmlns="http://www.w3.org/2000/svg">
<path fill-rule="evenodd" clip-rule="evenodd" d="M53 0L0 85H21.2L31.8 68L42.4 85H63.6L74.2 68L84.8 85H106L53 0ZM53 66.9375L42.93 50.4688L53 33.4688L63.07 50.4688L53 66.9375Z" fill="#48AFF0"/>
<path d="M156.616 56.942H140.907L138.307 64.4893H130L144.184 24.8235H153.395L167.579 64.4893H159.216L156.616 56.942ZM154.469 50.5864L148.761 34.0164L143.054 50.5864H154.469Z" fill="#182A38"/>
<path d="M190.23 32.5977C193.96 32.5977 196.974 33.7894 199.272 36.1728C201.57 38.5183 202.719 41.8096 202.719 46.0467V64.4893H194.807V47.1248C194.807 44.628 194.186 42.7175 192.943 41.3934C191.699 40.0315 190.004 39.3506 187.857 39.3506C185.672 39.3506 183.939 40.0315 182.658 41.3934C181.414 42.7175 180.793 44.628 180.793 47.1248V64.4893H172.881V33.0517H180.793V36.9672C181.848 35.6053 183.185 34.546 184.805 33.7894C186.463 32.995 188.271 32.5977 190.23 32.5977Z" fill="#182A38"/>
<path d="M208.208 48.657C208.208 45.4792 208.829 42.6608 210.073 40.2018C211.354 37.7427 213.087 35.8512 215.272 34.5271C217.457 33.203 219.887 32.541 222.562 32.541C224.596 32.541 226.536 32.995 228.382 33.9029C230.228 34.773 231.697 35.9458 232.79 37.4212V22.4968H240.814V64.4893H232.79V59.8361C231.81 61.3871 230.435 62.6356 228.665 63.5813C226.894 64.5271 224.841 65 222.505 65C219.868 65 217.457 64.319 215.272 62.9571C213.087 61.5952 211.354 59.6847 210.073 57.2257C208.829 54.7289 208.208 51.8726 208.208 48.657ZM232.846 48.7705C232.846 46.8411 232.47 45.1955 231.716 43.8335C230.963 42.4338 229.946 41.3745 228.665 40.6557C227.384 39.8991 226.009 39.5208 224.539 39.5208C223.07 39.5208 221.714 39.8802 220.471 40.599C219.227 41.3178 218.21 42.377 217.419 43.7768C216.666 45.1387 216.289 46.7654 216.289 48.657C216.289 50.5485 216.666 52.2131 217.419 53.6507C218.21 55.0504 219.227 56.1286 220.471 56.8852C221.752 57.6419 223.108 58.0202 224.539 58.0202C226.009 58.0202 227.384 57.6608 228.665 56.942C229.946 56.1854 230.963 55.1261 231.716 53.7642C232.47 52.3644 232.846 50.6999 232.846 48.7705Z" fill="#182A38"/>
<path d="M278.096 33.0517V64.4893H270.128V60.517C269.111 61.8789 267.774 62.9571 266.116 63.7516C264.496 64.5082 262.726 64.8865 260.804 64.8865C258.355 64.8865 256.189 64.3758 254.305 63.3544C252.422 62.2951 250.934 60.7629 249.841 58.7579C248.786 56.715 248.259 54.2938 248.259 51.4943V33.0517H256.17V50.3594C256.17 52.8562 256.792 54.7856 258.035 56.1475C259.278 57.4716 260.974 58.1337 263.121 58.1337C265.306 58.1337 267.02 57.4716 268.264 56.1475C269.507 54.7856 270.128 52.8562 270.128 50.3594V33.0517H278.096Z" fill="#182A38"/>
<path d="M289.915 29.3064C288.521 29.3064 287.353 28.8714 286.411 28.0013C285.507 27.0933 285.055 25.9773 285.055 24.6532C285.055 23.3291 285.507 22.232 286.411 21.3619C287.353 20.454 288.521 20 289.915 20C291.308 20 292.458 20.454 293.362 21.3619C294.304 22.232 294.774 23.3291 294.774 24.6532C294.774 25.9773 294.304 27.0933 293.362 28.0013C292.458 28.8714 291.308 29.3064 289.915 29.3064ZM293.814 33.0517V64.4893H285.902V33.0517H293.814Z" fill="#182A38"/>
<path d="M318.979 32.5977C322.709 32.5977 325.723 33.7894 328.021 36.1728C330.319 38.5183 331.468 41.8096 331.468 46.0467V64.4893H323.556V47.1248C323.556 44.628 322.935 42.7175 321.692 41.3934C320.448 40.0315 318.753 39.3506 316.606 39.3506C314.421 39.3506 312.688 40.0315 311.407 41.3934C310.163 42.7175 309.542 44.628 309.542 47.1248V64.4893H301.63V33.0517H309.542V36.9672C310.597 35.6053 311.934 34.546 313.554 33.7894C315.212 32.995 317.02 32.5977 318.979 32.5977Z" fill="#182A38"/>
<path d="M379.299 24.8802V31.2926H368.788V64.4893H360.877V31.2926H350.366V24.8802H379.299Z" fill="#182A38"/>
<path d="M392.983 37.9319C394 36.2673 395.319 34.9622 396.939 34.0164C398.596 33.0706 400.48 32.5977 402.59 32.5977V40.9395H400.499C398.013 40.9395 396.129 41.5259 394.848 42.6986C393.605 43.8714 392.983 45.9142 392.983 48.8272V64.4893H385.072V33.0517H392.983V37.9319Z" fill="#182A38"/>
<path d="M405.884 48.657C405.884 45.4792 406.506 42.6608 407.749 40.2018C409.03 37.7427 410.744 35.8512 412.892 34.5271C415.077 33.203 417.507 32.541 420.181 32.541C422.517 32.541 424.552 33.0139 426.285 33.9596C428.055 34.9054 429.468 36.0971 430.523 37.5347V33.0517H438.491V64.4893H430.523V59.8928C429.506 61.3682 428.093 62.5977 426.285 63.5813C424.514 64.5271 422.461 65 420.125 65C417.488 65 415.077 64.319 412.892 62.9571C410.744 61.5952 409.03 59.6847 407.749 57.2257C406.506 54.7289 405.884 51.8726 405.884 48.657ZM430.523 48.7705C430.523 46.8411 430.146 45.1955 429.393 43.8335C428.639 42.4338 427.622 41.3745 426.341 40.6557C425.06 39.8991 423.685 39.5208 422.216 39.5208C420.747 39.5208 419.39 39.8802 418.147 40.599C416.904 41.3178 415.887 42.377 415.095 43.7768C414.342 45.1387 413.965 46.7654 413.965 48.657C413.965 50.5485 414.342 52.2131 415.095 53.6507C415.887 55.0504 416.904 56.1286 418.147 56.8852C419.428 57.6419 420.784 58.0202 422.216 58.0202C423.685 58.0202 425.06 57.6608 426.341 56.942C427.622 56.1854 428.639 55.1261 429.393 53.7642C430.146 52.3644 430.523 50.6999 430.523 48.7705Z" fill="#182A38"/>
<path d="M463.566 32.5977C467.296 32.5977 470.31 33.7894 472.608 36.1728C474.906 38.5183 476.055 41.8096 476.055 46.0467V64.4893H468.144V47.1248C468.144 44.628 467.522 42.7175 466.279 41.3934C465.036 40.0315 463.34 39.3506 461.193 39.3506C459.008 39.3506 457.275 40.0315 455.994 41.3934C454.751 42.7175 454.129 44.628 454.129 47.1248V64.4893H446.218V33.0517H454.129V36.9672C455.184 35.6053 456.522 34.546 458.141 33.7894C459.799 32.995 461.607 32.5977 463.566 32.5977Z" fill="#182A38"/>
<path d="M495.559 65C492.997 65 490.699 64.546 488.665 63.6381C486.63 62.6923 485.01 61.425 483.805 59.8361C482.637 58.2472 481.996 56.488 481.883 54.5586H489.851C490.002 55.7692 490.586 56.7718 491.603 57.5662C492.658 58.3607 493.958 58.7579 495.502 58.7579C497.009 58.7579 498.177 58.4552 499.006 57.8499C499.873 57.2446 500.306 56.4691 500.306 55.5233C500.306 54.5019 499.778 53.7453 498.723 53.2535C497.706 52.7238 496.068 52.1564 493.807 51.5511C491.471 50.9836 489.55 50.3972 488.043 49.7919C486.574 49.1866 485.293 48.2598 484.2 47.0113C483.145 45.7629 482.618 44.0794 482.618 41.9609C482.618 40.2207 483.108 38.6318 484.087 37.1942C485.104 35.7566 486.536 34.6217 488.382 33.7894C490.266 32.9571 492.47 32.541 494.994 32.541C498.724 32.541 501.7 33.4868 503.922 35.3783C506.145 37.232 507.37 39.7478 507.596 42.9256H500.023C499.91 41.6772 499.383 40.6936 498.441 39.9748C497.537 39.2182 496.312 38.8398 494.768 38.8398C493.336 38.8398 492.225 39.1047 491.434 39.6343C490.68 40.1639 490.303 40.9016 490.303 41.8474C490.303 42.9067 490.831 43.72 491.886 44.2875C492.941 44.8171 494.579 45.3657 496.802 45.9332C499.063 46.5006 500.927 47.087 502.397 47.6923C503.866 48.2976 505.128 49.2434 506.183 50.5296C507.275 51.7781 507.841 53.4426 507.878 55.5233C507.878 57.3392 507.37 58.966 506.352 60.4035C505.373 61.8411 503.941 62.976 502.058 63.8083C500.212 64.6028 498.045 65 495.559 65Z" fill="#182A38"/>
<path d="M512.338 48.657C512.338 45.4792 512.96 42.6608 514.203 40.2018C515.484 37.7427 517.198 35.8512 519.345 34.5271C521.53 33.203 523.96 32.541 526.635 32.541C528.971 32.541 531.005 33.0139 532.738 33.9596C534.509 34.9054 535.922 36.0971 536.977 37.5347V33.0517H544.945V64.4893H536.977V59.8928C535.959 61.3682 534.547 62.5977 532.738 63.5813C530.968 64.5271 528.915 65 526.579 65C523.942 65 521.53 64.319 519.345 62.9571C517.198 61.5952 515.484 59.6847 514.203 57.2257C512.96 54.7289 512.338 51.8726 512.338 48.657ZM536.977 48.7705C536.977 46.8411 536.6 45.1955 535.846 43.8335C535.093 42.4338 534.076 41.3745 532.795 40.6557C531.514 39.8991 530.139 39.5208 528.67 39.5208C527.2 39.5208 525.844 39.8802 524.601 40.599C523.358 41.3178 522.34 42.377 521.549 43.7768C520.796 45.1387 520.419 46.7654 520.419 48.657C520.419 50.5485 520.796 52.2131 521.549 53.6507C522.34 55.0504 523.358 56.1286 524.601 56.8852C525.882 57.6419 527.238 58.0202 528.67 58.0202C530.139 58.0202 531.514 57.6608 532.795 56.942C534.076 56.1854 535.093 55.1261 535.846 53.7642C536.6 52.3644 536.977 50.6999 536.977 48.7705Z" fill="#182A38"/>
<path d="M550.637 48.7705C550.637 45.517 551.297 42.6797 552.615 40.2585C553.934 37.7995 555.761 35.9079 558.097 34.5839C560.432 33.2219 563.107 32.541 566.121 32.541C570.002 32.541 573.204 33.5246 575.728 35.4918C578.29 37.4212 580.004 40.145 580.87 43.6633H572.337C571.885 42.3014 571.113 41.2421 570.02 40.4855C568.965 39.691 567.647 39.2938 566.065 39.2938C563.804 39.2938 562.015 40.1261 560.696 41.7907C559.378 43.4174 558.718 45.744 558.718 48.7705C558.718 51.7591 559.378 54.0857 560.696 55.7503C562.015 57.377 563.804 58.1904 566.065 58.1904C569.267 58.1904 571.358 56.7528 572.337 53.8777H580.87C580.004 57.2825 578.29 59.9874 575.728 61.9924C573.166 63.9975 569.964 65 566.121 65C563.107 65 560.432 64.338 558.097 63.0139C555.761 61.652 553.934 59.7604 552.615 57.3392C551.297 54.8802 550.637 52.024 550.637 48.7705Z" fill="#182A38"/>
<path d="M595.877 39.5776V54.7856C595.877 55.8449 596.122 56.6204 596.612 57.1122C597.139 57.5662 598.006 57.7932 599.212 57.7932H602.885V64.4893H597.912C591.244 64.4893 587.909 61.2358 587.909 54.7289V39.5776H584.18V33.0517H587.909V25.2774H595.877V33.0517H602.885V39.5776H595.877Z" fill="#182A38"/>
<path d="M612.587 29.3064C611.193 29.3064 610.025 28.8714 609.084 28.0013C608.179 27.0933 607.727 25.9773 607.727 24.6532C607.727 23.3291 608.179 22.232 609.084 21.3619C610.025 20.454 611.193 20 612.587 20C613.981 20 615.13 20.454 616.034 21.3619C616.976 22.232 617.447 23.3291 617.447 24.6532C617.447 25.9773 616.976 27.0933 616.034 28.0013C615.13 28.8714 613.981 29.3064 612.587 29.3064ZM616.487 33.0517V64.4893H608.575V33.0517H616.487Z" fill="#182A38"/>
<path d="M638.205 65C635.191 65 632.478 64.338 630.067 63.0139C627.656 61.652 625.753 59.7415 624.36 57.2825C623.003 54.8235 622.325 51.9861 622.325 48.7705C622.325 45.5549 623.022 42.7175 624.416 40.2585C625.848 37.7995 627.788 35.9079 630.237 34.5839C632.685 33.2219 635.417 32.541 638.431 32.541C641.445 32.541 644.176 33.2219 646.625 34.5839C649.073 35.9079 650.995 37.7995 652.389 40.2585C653.82 42.7175 654.536 45.5549 654.536 48.7705C654.536 51.9861 653.802 54.8235 652.332 57.2825C650.901 59.7415 648.942 61.652 646.455 63.0139C644.006 64.338 641.256 65 638.205 65ZM638.205 58.0769C639.636 58.0769 640.974 57.7364 642.217 57.0555C643.498 56.3367 644.515 55.2774 645.268 53.8777C646.022 52.4779 646.399 50.7755 646.399 48.7705C646.399 45.7818 645.608 43.4931 644.025 41.9042C642.481 40.2774 640.578 39.4641 638.318 39.4641C636.057 39.4641 634.155 40.2774 632.61 41.9042C631.103 43.4931 630.35 45.7818 630.35 48.7705C630.35 51.7591 631.084 54.0668 632.554 55.6936C634.061 57.2825 635.944 58.0769 638.205 58.0769Z" fill="#182A38"/>
<path d="M677.688 32.5977C681.418 32.5977 684.432 33.7894 686.73 36.1728C689.028 38.5183 690.177 41.8096 690.177 46.0467V64.4893H682.266V47.1248C682.266 44.628 681.644 42.7175 680.401 41.3934C679.158 40.0315 677.462 39.3506 675.315 39.3506C673.13 39.3506 671.397 40.0315 670.116 41.3934C668.873 42.7175 668.251 44.628 668.251 47.1248V64.4893H660.34V33.0517H668.251V36.9672C669.306 35.6053 670.643 34.546 672.263 33.7894C673.921 32.995 675.729 32.5977 677.688 32.5977Z" fill="#182A38"/>
<path d="M709.681 65C707.119 65 704.821 64.546 702.786 63.6381C700.752 62.6923 699.132 61.425 697.927 59.8361C696.759 58.2472 696.118 56.488 696.005 54.5586H703.973C704.124 55.7692 704.708 56.7718 705.725 57.5662C706.78 58.3607 708.08 58.7579 709.624 58.7579C711.131 58.7579 712.299 58.4552 713.128 57.8499C713.994 57.2446 714.428 56.4691 714.428 55.5233C714.428 54.5019 713.9 53.7453 712.845 53.2535C711.828 52.7238 710.189 52.1564 707.929 51.5511C705.593 50.9836 703.672 50.3972 702.165 49.7919C700.696 49.1866 699.415 48.2598 698.322 47.0113C697.267 45.7629 696.74 44.0794 696.74 41.9609C696.74 40.2207 697.23 38.6318 698.209 37.1942C699.226 35.7566 700.658 34.6217 702.504 33.7894C704.388 32.9571 706.591 32.541 709.116 32.541C712.845 32.541 715.822 33.4868 718.044 35.3783C720.267 37.232 721.491 39.7478 721.717 42.9256H714.145C714.032 41.6772 713.505 40.6936 712.563 39.9748C711.659 39.2182 710.434 38.8398 708.89 38.8398C707.458 38.8398 706.347 39.1047 705.555 39.6343C704.802 40.1639 704.425 40.9016 704.425 41.8474C704.425 42.9067 704.953 43.72 706.008 44.2875C707.062 44.8171 708.701 45.3657 710.924 45.9332C713.184 46.5006 715.049 47.087 716.519 47.6923C717.988 48.2976 719.25 49.2434 720.305 50.5296C721.397 51.7781 721.962 53.4426 722 55.5233C722 57.3392 721.491 58.966 720.474 60.4035C719.495 61.8411 718.063 62.976 716.179 63.8083C714.333 64.6028 712.167 65 709.681 65Z" fill="#182A38"/>
</svg>
