<svg width="330" height="85" viewBox="0 0 330 85" fill="none" xmlns="http://www.w3.org/2000/svg">
<path fill-rule="evenodd" clip-rule="evenodd" d="M53 0L0 85H21.2L31.8 68L42.4 85H63.6L74.2 68L84.8 85H106L53 0ZM53 66.9375L42.93 50.4688L53 33.4688L63.07 50.4688L53 66.9375Z" fill="#48AFF0"/>
<path d="M154.687 56.942H138.935L136.329 64.4893H128L142.222 24.8235H151.457L165.679 64.4893H157.293L154.687 56.942ZM152.534 50.5864L146.811 34.0164L141.088 50.5864H152.534Z" fill="#182A38"/>
<path d="M188.389 32.5977C192.129 32.5977 195.151 33.7894 197.455 36.1728C199.759 38.5183 200.911 41.8096 200.911 46.0467V64.4893H192.979V47.1248C192.979 44.628 192.355 42.7175 191.109 41.3934C189.862 40.0315 188.162 39.3506 186.009 39.3506C183.819 39.3506 182.081 40.0315 180.797 41.3934C179.55 42.7175 178.927 44.628 178.927 47.1248V64.4893H170.995V33.0517H178.927V36.9672C179.985 35.6053 181.326 34.546 182.95 33.7894C184.612 32.995 186.425 32.5977 188.389 32.5977Z" fill="#182A38"/>
<path d="M206.414 48.657C206.414 45.4792 207.038 42.6608 208.284 40.2018C209.568 37.7427 211.306 35.8512 213.497 34.5271C215.688 33.203 218.124 32.541 220.806 32.541C222.846 32.541 224.791 32.995 226.642 33.9029C228.493 34.773 229.966 35.9458 231.061 37.4212V22.4968H239.107V64.4893H231.061V59.8361C230.079 61.3871 228.701 62.6356 226.925 63.5813C225.15 64.5271 223.091 65 220.749 65C218.105 65 215.688 64.319 213.497 62.9571C211.306 61.5952 209.568 59.6847 208.284 57.2257C207.038 54.7289 206.414 51.8726 206.414 48.657ZM231.118 48.7705C231.118 46.8411 230.74 45.1955 229.985 43.8335C229.229 42.4338 228.21 41.3745 226.925 40.6557C225.641 39.8991 224.262 39.5208 222.789 39.5208C221.316 39.5208 219.956 39.8802 218.71 40.599C217.463 41.3178 216.443 42.3771 215.65 43.7768C214.895 45.1387 214.517 46.7654 214.517 48.657C214.517 50.5485 214.895 52.2131 215.65 53.6507C216.443 55.0504 217.463 56.1286 218.71 56.8852C219.994 57.6419 221.354 58.0202 222.789 58.0202C224.262 58.0202 225.641 57.6608 226.925 56.942C228.21 56.1854 229.229 55.1261 229.985 53.7642C230.74 52.3644 231.118 50.6999 231.118 48.7705Z" fill="#182A38"/>
<path d="M276.488 33.0517V64.4893H268.498V60.517C267.479 61.8789 266.138 62.9571 264.476 63.7516C262.851 64.5082 261.076 64.8865 259.15 64.8865C256.694 64.8865 254.522 64.3758 252.634 63.3544C250.745 62.2951 249.253 60.7629 248.158 58.7579C247.1 56.715 246.571 54.2938 246.571 51.4943V33.0517H254.504V50.3594C254.504 52.8562 255.127 54.7856 256.373 56.1475C257.62 57.4716 259.32 58.1337 261.473 58.1337C263.664 58.1337 265.382 57.4716 266.629 56.1475C267.875 54.7856 268.498 52.8562 268.498 50.3594V33.0517H276.488Z" fill="#182A38"/>
<path d="M288.337 29.3064C286.939 29.3064 285.768 28.8714 284.824 28.0013C283.917 27.0933 283.464 25.9773 283.464 24.6532C283.464 23.3291 283.917 22.232 284.824 21.3619C285.768 20.454 286.939 20 288.337 20C289.735 20 290.887 20.454 291.793 21.3619C292.737 22.232 293.21 23.3291 293.21 24.6532C293.21 25.9773 292.737 27.0933 291.793 28.0013C290.887 28.8714 289.735 29.3064 288.337 29.3064ZM292.246 33.0517V64.4893H284.314V33.0517H292.246Z" fill="#182A38"/>
<path d="M317.478 32.5977C321.218 32.5977 324.24 33.7894 326.544 36.1728C328.848 38.5183 330 41.8096 330 46.0467V64.4893H322.068V47.1248C322.068 44.628 321.444 42.7175 320.198 41.3934C318.951 40.0315 317.252 39.3506 315.098 39.3506C312.908 39.3506 311.17 40.0315 309.886 41.3934C308.639 42.7175 308.016 44.628 308.016 47.1248V64.4893H300.084V33.0517H308.016V36.9672C309.074 35.6053 310.415 34.546 312.039 33.7894C313.701 32.995 315.514 32.5977 317.478 32.5977Z" fill="#182A38"/>
</svg>
